<svg xmlns="http://www.w3.org/2000/svg"
	viewBox="0 0 3640 2048" >
  <rect
  	fill="#000000" stroke="none"
	width="3640" height="2048" x="0" y="0" />
  <path
     fill="#ffffff" stroke="none"
     d="m 1629.9699,640 -0.6564,0.6564 h -0.6564 l -1.3128,1.31283 h -0.6564 l -2.6259,2.62563 h -0.6564 l -10.5024,10.50258 v 0.6564 l -2.6256,2.62566 v 0.6564 l -1.9692,1.96923 v 0.6564 l -1.9695,1.96923 v 0.65643 l -1.3125,1.3128 v 0.65643 l -1.3131,1.3128 v 0.65643 l -1.3128,1.3128 v 0.65643 l -0.6564,0.6564 v 0.6564 l -1.3128,1.31283 v 0.6564 l -0.6564,0.65643 v 0.6564 l -0.6564,0.65643 v 0.6564 l -0.6564,0.6564 v 0.65643 l -0.6564,0.6564 v 0.6564 l -1.3128,1.31283 v 1.3128 l -0.6564,0.65643 v 0.6564 l -0.6564,0.65643 v 0.6564 l -0.6564,0.6564 v 0.65643 l -0.6564,0.6564 v 0.6564 l -0.6564,0.65643 v 0.6564 l -0.6564,0.6564 v 0.65643 l -0.6564,0.6564 v 1.31283 l -0.6564,0.6564 v 0.6564 l -0.6564,0.65643 v 1.31283 l -0.6564,0.6564 v 0.6564 l -0.6564,0.6564 v 1.31283 l -0.6564,0.6564 v 1.31283 l -0.6564,0.6564 v 1.31283 l -0.6564,0.65643 v 1.3128 l -0.6564,0.65643 v 1.3128 l -0.6567,0.65643 v 1.3128 l -0.6564,0.65643 v 1.3128 l -0.6564,0.65643 v 1.96923 l -0.6564,0.6564 v 1.31283 l -0.6564,0.6564 V 716.8 l -0.6564,0.6564 v 1.96926 l -0.6564,0.6564 v 2.62563 l -0.6564,0.6564 v 2.62566 l -0.6564,0.6564 v 2.62566 l -0.6564,0.6564 v 3.28206 l -0.6564,0.6564 v 3.93846 l -0.6564,0.6564 v 5.90772 l -0.6564,0.6564 v 9.18975 l -0.6564,0.6564 v 13.12821 l 0.6564,0.6564 v 9.18975 l 0.6564,0.6564 v 5.25129 l 0.6564,0.6564 v 3.93846 l 0.6564,0.65643 v 3.28206 l 0.6564,0.6564 v 2.62563 l 0.6564,0.65643 v 2.62563 l 0.6564,0.6564 v 1.96923 l 0.6564,0.65643 v 1.96923 l 0.6564,0.6564 v 1.31283 l 0.6564,0.6564 v 1.96923 l 0.6564,0.6564 v 1.31283 l 0.6564,0.6564 v 1.31283 l 0.6564,0.65643 v 1.3128 l 0.6567,0.6564 v 1.31283 l 0.6564,0.6564 v 0.65643 l 0.6564,0.6564 v 1.31283 l 0.6564,0.6564 v 0.65643 l 0.6564,0.6564 v 1.31283 l 0.6564,0.6564 v 0.6564 l 0.6564,0.65643 v 0.6564 l 0.6564,0.6564 v 0.65643 l 0.6564,0.6564 v 0.6564 l 0.6564,0.65643 v 0.6564 l 0.6564,0.6564 v 0.65643 l 0.6564,0.6564 v 0.6564 l 0.6564,0.65643 v 0.6564 l 0.6564,0.65643 v 0.6564 l 1.3128,1.3128 v 0.65643 l 0.6564,0.6564 v 0.6564 l 0.6564,0.65643 v 0.6564 l 1.3128,1.31283 v 0.6564 l 1.3128,1.31283 v 0.6564 l 1.3128,1.31283 v 0.6564 l 1.3128,1.31283 v 0.6564 l 1.3128,1.31283 v 0.6564 l 1.9692,1.96923 v 0.65643 l 2.6259,2.62563 v 0.6564 l 3.282,3.28206 v 0.65643 l 14.4411,14.44105 h 0.6564 l 3.9384,3.9384 h 0.6564 l 2.6256,2.6257 h 0.6564 l 1.9692,1.9692 h 0.6564 l 1.9692,1.9692 h 0.6564 l 1.9692,1.9693 h 0.6564 l 1.3131,1.3128 h 0.6561 l 1.3131,1.3128 h 0.6564 l 1.3128,1.3128 h 0.6564 l 1.3128,1.3128 h 0.6564 l 0.6564,0.6565 h 0.6564 l 1.3128,1.3128 h 0.6564 l 1.3128,1.3128 h 0.6564 l 0.6564,0.6564 h 0.6564 l 1.3128,1.3128 h 0.6564 l 0.6564,0.6564 h 0.6564 l 1.3128,1.3129 h 0.6564 l 0.6567,0.6564 h 0.6561 l 0.6567,0.6564 h 0.6564 l 1.3128,1.3128 h 0.6564 l 0.6564,0.6564 h 0.6564 l 0.6564,0.6564 h 0.6564 l 0.6564,0.6564 h 0.6564 l 1.3128,1.3128 h 0.6564 l 0.6564,0.6564 h 0.6564 l 0.6564,0.6565 h 0.6564 l 0.6564,0.6564 h 0.6564 l 0.6564,0.6564 h 0.6564 l 0.6564,0.6564 h 0.6564 l 0.6564,0.6564 h 0.6564 l 0.6564,0.6564 h 0.6564 l 0.6567,0.6564 h 0.6561 l 0.6567,0.6564 h 0.6564 l 1.3128,1.3129 h 0.6564 l 0.6564,0.6564 h 0.6564 l 0.6564,0.6564 h 0.6564 l 0.6564,0.6564 h 0.6564 l 0.6564,0.6564 h 0.6564 l 0.6564,0.6564 h 0.6564 l 0.6564,0.6564 h 0.6564 l 0.6564,0.6564 h 0.6564 l 1.3128,1.3129 h 0.6564 l 0.6564,0.6564 h 0.6564 l 0.6564,0.6564 h 0.6564 l 1.3131,1.3128 h 0.6561 l 0.6567,0.6564 h 0.6564 l 1.3128,1.3128 h 0.6564 l 0.6564,0.6564 h 0.6564 l 1.3128,1.3128 h 0.6564 l 1.3128,1.3129 h 0.6564 l 1.3128,1.3128 h 0.6564 l 1.3128,1.3128 h 0.6564 l 1.3128,1.3128 h 0.6564 l 1.9692,1.9693 h 0.6564 l 3.2823,3.282 h 0.6564 l 10.5024,10.5026 v 0.6564 l 2.6256,2.6256 v 0.6564 l 1.3128,1.3129 v 0.6564 l 1.3128,1.3128 v 0.6564 l 0.6567,0.6564 v 0.6564 l 1.3128,1.3129 v 0.6564 l 0.6564,0.6564 v 0.6564 l 0.6564,0.6564 v 1.3128 l 0.6564,0.6564 v 0.6564 l 0.6564,0.6564 v 2.6257 l 0.6564,0.6564 v 2.6256 l -0.6564,0.6565 v 1.9692 l -1.3128,1.3128 v 0.6564 l -1.3128,1.3128 h -0.6564 l -0.6564,0.6564 h -7.2207 l -0.6564,-0.6564 h -1.3128 l -0.6564,-0.6564 h -0.6564 l -0.6564,-0.6564 h -0.6564 l -0.6564,-0.6564 h -0.6564 l -1.3128,-1.3128 h -0.6564 l -1.3128,-1.3128 h -0.6564 l -11.1591,-11.159 v -0.6564 l -12.4719,-12.4718 h -0.6564 l -1.9692,-1.9693 h -0.6564 l -1.3128,-1.3128 h -0.6564 l -1.3128,-1.3128 h -0.6564 l -1.3128,-1.3128 h -0.6564 l -0.6564,-0.6564 h -0.6564 l -0.6564,-0.6564 h -0.6564 l -0.6564,-0.6564 h -0.6564 l -0.6564,-0.6564 h -0.6564 l -0.6564,-0.6565 h -0.6567 l -0.6561,-0.6564 h -0.6567 l -0.6564,-0.6564 h -1.3128 l -0.6564,-0.6564 h -0.6564 l -0.6564,-0.6564 h -1.3128 l -0.6564,-0.6564 h -1.3128 l -0.6564,-0.6564 h -1.3128 l -0.6564,-0.6564 h -1.3128 l -0.6564,-0.6564 h -1.9692 l -0.6564,-0.6565 h -1.3128 l -0.6564,-0.6564 h -1.9695 l -0.6561,-0.6564 h -2.6259 l -0.6564,-0.6564 h -1.9692 l -0.6564,-0.6564 h -2.6256 l -0.6564,-0.6564 h -3.282 l -0.6564,-0.6564 h -3.282 l -0.6564,-0.6564 h -3.2823 l -0.6564,-0.6565 h -3.9384 l -0.6564,-0.6564 h -3.282 l -0.6564,-0.6564 h -4.5948 l -0.6564,-0.6564 h -5.2515 l -0.6564,-0.6564 h -4.5948 l -0.6564,-0.6564 h -3.9384 l -0.6564,0.6564 h -1.3128 l -0.6564,0.6564 h -0.6564 l -0.6564,0.6564 v 0.6564 l -0.6564,0.6564 v 1.3129 l -0.6564,0.6564 v 1.9692 l 0.6564,0.6564 v 1.9693 l 0.6564,0.6564 v 0.6564 l 0.6564,0.6564 v 1.3128 l 0.6564,0.6564 v 1.3129 l 0.6564,0.6564 v 1.3128 l 0.6564,0.6564 v 1.3128 l 0.6564,0.6564 v 1.3128 l 0.6564,0.6564 v 1.3129 l 0.6564,0.6564 v 1.3128 l 0.6564,0.6564 v 1.3128 l 0.6564,0.6564 v 0.6564 l 0.6564,0.6565 v 1.3128 l 0.6564,0.6564 v 1.3128 l 0.6564,0.6564 v 1.3128 l 0.6564,0.6565 v 0.6564 l 0.6564,0.6564 v 1.3128 l 0.6564,0.6564 v 1.3128 l 0.6564,0.6564 v 0.6564 l 0.6564,0.6564 v 1.3129 l 0.6564,0.6564 v 0.6564 l 0.6564,0.6564 v 0.6564 l 0.6564,0.6564 v 1.3129 l 0.6564,0.6564 v 0.6564 l 0.6564,0.6564 v 0.6564 l 0.6567,0.6564 V 972.8 l 0.6561,0.6564 v 0.6564 l 0.6567,0.6564 v 0.6565 l 0.6564,0.6564 v 0.6564 l 0.6564,0.6564 v 0.6564 l 0.6564,0.6564 v 0.6564 l 0.6564,0.6565 v 0.6564 l 0.6564,0.6564 v 0.6564 l 1.3128,1.3128 v 0.6564 l 0.6564,0.6564 v 0.6564 l 0.6564,0.6564 v 0.6564 l 1.3128,1.3128 v 0.6564 l 0.6564,0.6566 v 0.6564 l 1.3128,1.3128 v 0.6564 l 1.3128,1.3128 v 0.6564 l 1.9692,1.9692 v 0.6564 l 2.6256,2.6257 v 0.6563 l 7.2207,7.2205 h 0.6564 l 1.9692,1.9694 h 0.6564 l 1.3128,1.3128 h 0.6564 l 1.3128,1.3128 h 0.6564 l 1.3128,1.3128 h 0.6564 l 0.6564,0.6564 h 0.6564 l 0.6564,0.6564 h 0.6564 l 0.6564,0.6564 h 0.6564 l 0.6564,0.6564 h 0.6564 l 0.6567,0.6564 h 0.6561 l 0.6567,0.6564 h 0.6564 l 0.6564,0.6564 h 1.3128 l 0.6564,0.6565 h 1.3128 l 0.6564,0.6563 h 0.6564 l 0.6564,0.6565 h 1.3128 l 0.6564,0.6564 h 1.9692 l 0.6564,0.6564 h 1.3128 l 0.6564,0.6564 h 1.9692 l 0.6564,0.6564 h 3.282 l 0.6567,0.6564 h 3.9384 l 0.6564,0.6564 h 24.2871 l 0.6564,0.6564 h 1.3128 l 0.6564,0.6564 h 0.6564 l 0.6564,0.6564 h 0.6564 l 5.2515,5.2514 v 0.6564 l 0.6564,0.6564 v 0.6564 l 0.6564,0.6564 v 0.6564 l 0.6564,0.6564 v 1.3128 l 0.6564,0.6564 v 3.9385 l 0.6564,0.6564 v 7.877 l 0.6564,0.6564 v 14.4409 l 0.6564,0.6564 v 6.5642 l 0.6564,0.6564 v 3.9384 l 0.6564,0.6564 v 2.6257 l 0.6564,0.6564 v 2.6256 l 0.6564,0.6564 v 2.6258 l 0.6564,0.6562 v 1.9694 l 0.6564,0.6564 v 1.9692 l 0.6564,0.6564 v 1.3128 l 0.6564,0.6564 v 7.8769 l -0.6564,0.6564 v 2.6256 l -0.6564,0.6566 v 1.9692 l -0.6564,0.6564 v 1.9692 l -0.6564,0.6564 v 1.9692 l -0.6564,0.6565 v 1.9692 l -0.6564,0.6563 v 1.9693 l -0.6564,0.6564 v 1.9692 l -0.6564,0.6564 v 1.9692 l -0.6564,0.6566 v 2.6256 l -0.6564,0.6564 v 1.9692 l -0.6564,0.6564 v 1.9692 l -0.6564,0.6564 v 2.6257 l -0.6564,0.6563 v 2.6257 l -0.6564,0.6564 v 1.9692 l -0.6564,0.6564 v 2.6258 l -0.6564,0.6564 v 1.9692 l -0.6564,0.6564 v 2.6256 l -0.6567,0.6564 v 1.9693 l -0.6564,0.6563 v 1.9693 l -0.6564,0.6564 v 2.6256 l -0.6564,0.6564 v 1.9692 l -0.6564,0.6564 v 1.9694 l -0.6564,0.6564 v 1.9692 l -0.6564,0.6564 v 1.9692 l -0.6564,0.6564 v 1.3128 l -0.6564,0.6565 v 1.9692 l -0.6564,0.6564 v 1.3128 l -0.6564,0.6564 v 1.9692 l -0.6564,0.6564 v 1.3128 l -0.6564,0.6564 v 1.9694 l -0.6564,0.6562 v 1.313 l -0.6564,0.6564 v 1.3128 l -0.6564,0.6564 v 1.9692 l -0.6564,0.6564 v 1.3129 l -0.6564,0.6564 v 1.3128 l -0.6564,0.6564 v 1.3128 l -0.6564,0.6564 v 1.3128 l -0.6564,0.6564 v 1.3128 l -0.6564,0.6564 v 1.3128 l -0.6564,0.6566 v 0.6564 l -0.6564,0.6564 v 1.3128 l -0.6564,0.6564 v 1.3128 l -0.6564,0.6564 v 1.3128 l -0.6564,0.6564 v 1.3129 l -0.6564,0.6563 v 0.6565 l -0.6567,0.6564 v 1.3128 l -0.6561,0.6564 v 1.3128 l -0.6564,0.6564 v 1.3128 l -0.6567,0.6564 v 1.3128 l -0.6564,0.6566 v 1.3128 l -0.6564,0.6564 v 1.9692 l -0.6564,0.6564 v 1.3128 l -0.6564,0.6564 v 1.9692 l -0.6564,0.6565 v 2.6256 l -0.6564,0.6564 v 1.9692 l -0.6564,0.6564 v 2.6256 l -0.6564,0.6564 v 2.6258 l -0.6564,0.6563 v 3.9384 l -0.6564,0.6565 v 5.9077 l -0.6564,0.6564 v 0.6564 l 0.6564,0.6564 v 2.6256 h 0.6564 l 0.6564,0.6564 h 0.6564 l 1.9692,-1.969 v -0.6566 l 0.6564,-0.6564 v -0.6564 l 0.6564,-0.6564 v -0.6564 l 1.3128,-1.3128 1.3131,1.3128 v 7.2206 l -0.6564,0.6564 v 11.1589 l 0.6564,0.6564 v 7.2204 l 0.6561,0.6566 v 5.9076 l 0.6567,0.6564 v 4.5949 l 0.6564,0.6564 v 3.282 l 0.6564,0.6566 v 2.6256 l 0.6564,0.6564 v 1.9692 l 0.6564,0.6564 v 1.3128 l 0.6564,0.6564 v 1.3128 l 0.6564,0.6565 v 1.3127 l 0.6564,0.6565 v 1.3128 l 0.6564,0.6564 v 0.6564 l 0.6564,0.6564 v 0.6564 l 0.6564,0.6564 v 1.3128 l 0.6564,0.6564 v 0.6564 l 0.6564,0.6564 v 0.6565 l 0.6564,0.6565 v 0.6563 l 1.3128,1.3129 v 0.6563 l 0.6564,0.6564 v 0.6564 l 1.3128,1.3128 v 0.6564 l 1.3128,1.3128 v 0.6564 l 3.282,3.2822 h 2.6259 l 1.3128,-1.3128 v -0.6566 l 0.6564,-0.6562 v -1.3129 l 0.6564,-0.6563 v -1.9693 l 0.6564,-0.6564 v -0.6564 l 0.6564,-0.6564 1.9692,1.9692 v 1.3128 l 0.6564,0.6565 v 0.6563 l 0.6564,0.6564 v 0.6565 l 0.6564,0.6562 v 0.6566 l 0.6564,0.6564 v 0.6564 l 0.6564,0.6564 v 0.6564 l 0.6564,0.6564 v 0.6564 l 0.6564,0.6564 v 0.6564 l 0.6564,0.6564 v 0.6564 l 0.6564,0.6564 v 0.6564 l 0.6564,0.6565 v 0.6563 l 0.6564,0.6565 v 0.6564 l 0.6564,0.6564 v 0.6564 l 1.3128,1.3128 v 0.6564 l 0.6564,0.6564 v 0.6564 l 1.3128,1.3128 v 0.6564 l 1.3131,1.313 v 0.6564 l 1.3128,1.3128 v 0.6564 l 1.3128,1.3128 v 0.6564 l 1.3128,1.3128 v 0.6564 l 2.6256,2.6257 v 0.6563 l 12.4716,12.4719 h 0.6564 l 2.6259,2.6256 h 0.6564 l 1.3128,1.3128 h 0.6564 l 1.3128,1.3128 h 0.6564 l 0.6564,0.6565 h 0.6564 l 0.6564,0.6564 h 0.6564 l 0.6564,-0.6564 h 0.6564 v -0.6565 l 0.6564,-0.6564 v -1.9692 l 1.3128,-1.3128 h 0.6564 l 2.6256,2.6256 v 0.6564 l 5.2515,5.2513 v 0.6564 l 14.4408,14.441 h 0.6567 l 4.5948,4.595 h 0.6564 l 3.282,3.282 h 0.6564 l 2.6256,2.6257 h 0.6564 l 1.3128,1.3128 h 0.6564 l 1.9692,1.9692 h 0.6564 l 0.6567,0.6564 h 0.6561 l 0.6564,0.6564 h 0.6567 l 0.6561,0.6564 h 3.9387 l 0.6564,-0.6564 h 0.6564 l 0.6564,-0.6564 h 0.6564 l 0.6564,-0.6564 h 0.6564 l 1.3128,-1.3128 h 0.6564 l 1.9692,-1.9692 h 0.6564 l 1.9692,-1.9693 h 0.6564 l 3.2823,-3.282 h 0.6564 l 5.2512,-5.2514 h 0.6564 l 19.0359,-19.0358 v -0.6565 l 3.9384,-3.9384 h 0.6564 l 0.6564,0.6564 v 0.6564 l 0.6564,0.6564 v 1.9692 l 0.6564,0.6565 h 0.6564 l 0.6564,0.6564 h 1.3128 l 0.6564,-0.6564 h 0.6564 l 1.3128,-1.3129 h 0.6564 l 0.6564,-0.6564 h 0.6567 l 2.6256,-2.6256 h 0.6564 l 5.2512,-5.2514 h 0.6564 l 3.282,-3.282 v -0.6564 l 5.2515,-5.2512 v -0.6565 l 2.6256,-2.6256 v -0.6564 l 1.3128,-1.3128 v -0.6564 l 1.9692,-1.9692 v -0.6564 l 1.3128,-1.3128 v -0.6566 l 1.3128,-1.3128 v -0.6564 l 0.6564,-0.6564 v -0.6564 l 1.3128,-1.3128 v -0.6564 l 0.6564,-0.6563 v -0.6565 l 0.6564,-0.6564 v -0.6565 l 0.6564,-0.6562 v -0.6566 l 0.6564,-0.6564 v -0.6564 l 0.6564,-0.6564 v -0.6564 l 0.6564,-0.6564 v -0.6564 l 0.6564,-0.6564 v -0.6564 l 0.6564,-0.6564 v -0.6564 l 0.6564,-0.6564 v -0.6564 l 0.6564,-0.6565 v -1.3128 l 0.6564,-0.6564 v -0.6563 l 0.6564,-0.6565 v -0.6564 l 0.6564,-0.6564 v -1.3128 l 0.6567,-0.6564 h 0.6561 l 1.3131,1.3128 v 2.6257 l 0.6564,0.6563 v 1.3129 l 0.6564,0.6563 v 0.6565 l 1.3128,1.3128 h 1.9692 l 0.6564,-0.6564 h 0.6564 v -0.6564 l 2.6256,-2.6257 v -0.6563 l 1.3128,-1.3129 v -0.6564 l 1.3128,-1.3128 v -0.6564 l 0.6564,-0.6564 v -0.6564 l 0.6564,-0.6564 v -0.6564 l 1.3128,-1.313 v -0.6564 l 0.6564,-0.6564 v -1.3128 l 0.6567,-0.6564 v -0.6564 l 0.6561,-0.6564 v -1.3128 l 0.6564,-0.6564 v -0.6565 l 0.6567,-0.6563 v -1.3128 l 0.6564,-0.6564 v -1.3129 l 0.6564,-0.6564 v -1.9692 l 0.6564,-0.6564 v -1.3128 l 0.6564,-0.6564 v -1.9694 l 0.6564,-0.6562 v -2.6258 l 0.6564,-0.6564 v -3.282 l 0.6564,-0.6565 v -3.9384 l 0.6564,-0.6563 v -5.9077 l 0.6564,-0.6564 v -9.1898 l 0.6564,-0.6565 v -4.5948 l -0.6564,-0.6564 v -10.5026 l 0.6564,-0.6564 h 0.6564 l 1.3128,1.3128 v 0.6564 l 0.6564,0.6564 v 0.6564 l 1.3128,1.3128 v 0.6564 l 0.6564,0.6564 h 1.3128 l 0.6564,-0.6564 v -1.3126 l 0.6564,-0.6566 v -5.2512 l -0.6564,-0.6564 v -3.9386 l -0.6564,-0.6564 v -3.282 l -0.6564,-0.6565 v -2.6256 l -0.6564,-0.6564 v -1.9692 l -0.6564,-0.6564 v -2.6256 l -0.6564,-0.6564 v -1.9692 l -0.6564,-0.6565 v -1.9692 l -0.6564,-0.6564 v -1.3128 l -0.6564,-0.6564 v -1.9692 l -0.6564,-0.6564 v -1.3128 l -0.6564,-0.6566 v -1.3128 l -0.6564,-0.6564 v -1.9692 l -0.6564,-0.6564 v -1.3128 l -0.6564,-0.6564 v -1.3128 l -0.6564,-0.6565 v -0.6563 l -0.6564,-0.6565 v -1.3128 l -0.6564,-0.6564 v -1.3128 l -0.6564,-0.6564 v -1.3128 l -0.6564,-0.6564 v -1.3128 l -0.6564,-0.6564 v -0.6566 l -0.6564,-0.6562 v -1.313 l -0.6567,-0.6564 v -1.3128 l -0.6564,-0.6564 v -1.3128 l -0.6561,-0.6564 v -1.9692 l -0.6567,-0.6564 v -1.3129 l -0.6564,-0.6564 v -1.9692 l -0.6564,-0.6564 v -1.3128 l -0.6564,-0.6564 v -1.9694 l -0.6564,-0.6562 v -1.9694 l -0.6564,-0.6564 v -1.3128 l -0.6564,-0.6564 v -1.9692 l -0.6564,-0.6564 v -1.9692 l -0.6564,-0.6564 v -1.9693 l -0.6564,-0.6564 v -1.3128 l -0.6564,-0.6564 v -2.6256 l -0.6564,-0.6564 v -1.9692 l -0.6564,-0.6564 v -1.9694 l -0.6564,-0.6564 v -1.9692 l -0.6564,-0.6564 v -1.9692 l -0.6564,-0.6565 v -1.9691 l -0.6564,-0.6564 v -2.6257 l -0.6564,-0.6564 v -1.9692 l -0.6564,-0.6564 v -1.9692 l -0.6564,-0.6566 v -2.6256 l -0.6564,-0.6564 v -1.9692 l -0.6564,-0.6564 v -1.9693 l -0.6564,-0.6563 v -2.6257 l -0.6564,-0.6564 v -2.6256 l -0.6567,-0.6564 v -1.9692 l -0.6561,-0.6566 v -2.6256 l -0.6567,-0.6564 v -1.9692 l -0.6564,-0.6564 v -1.9692 l -0.6564,-0.6564 v -2.6257 l -0.6564,-0.6564 v -1.9692 l -0.6564,-0.6564 v -2.6256 l -0.6564,-0.6564 v -1.9692 l -0.6564,-0.6564 v -2.6258 l -0.6564,-0.6564 v -2.6256 l -0.6564,-0.6564 v -5.2513 l 0.6564,-0.6564 v -1.3128 l 0.6564,-0.6564 v -1.9692 l 0.6564,-0.6564 v -1.9694 l 0.6564,-0.6562 v -1.9694 l 0.6564,-0.6564 v -1.9692 l 0.6564,-0.6564 v -3.282 l 0.6564,-0.6565 v -3.282 l 0.6564,-0.6564 v -3.9384 l 0.6567,-0.6564 v -9.1898 l 0.6561,-0.6564 v -12.4719 l 0.6567,-0.6564 v -6.564 l 0.6564,-0.6564 v -1.9693 l 0.6564,-0.6564 v -1.3128 l 0.6564,-0.6564 v -0.6564 l 0.6564,-0.6564 v -0.6564 l 1.9692,-1.9692 v -0.6566 l 2.6256,-2.6256 h 0.6564 l 1.3128,-1.3128 h 0.6564 L 1924.698,1024 h 1.3128 l 0.6564,-0.6564 h 24.9438 l 0.6561,-0.6564 h 3.2823 l 0.6564,-0.6564 h 2.6256 l 0.6564,-0.6564 h 1.9692 l 0.6564,-0.6564 h 1.3128 l 0.6564,-0.6564 h 1.9692 l 0.6564,-0.6564 h 1.3128 l 0.6567,-0.6565 h 1.3125 l 0.6567,-0.6563 h 0.6561 l 0.6567,-0.6565 h 1.3128 l 0.6564,-0.6564 h 0.6564 l 0.6564,-0.6564 h 1.3128 l 0.6564,-0.6564 h 0.6564 l 0.6564,-0.6564 h 0.6564 l 0.6564,-0.6564 h 0.6564 l 0.6564,-0.6564 h 0.6564 l 0.6564,-0.6564 h 0.6564 l 1.3128,-1.3128 h 0.6564 l 1.3128,-1.3128 h 0.6564 l 1.3128,-1.3128 h 0.6564 l 2.6259,-2.6258 h 0.6564 l 5.2512,-5.2512 v -0.6564 l 3.282,-3.2821 v -0.6564 l 1.3128,-1.3128 v -0.6564 l 1.9692,-1.9692 v -0.6564 l 1.3128,-1.3128 v -0.6564 l 0.6564,-0.6564 v -0.6566 l 1.3131,-1.3128 v -0.6564 l 0.6561,-0.6564 v -0.6564 l 1.3131,-1.3128 v -0.6564 l 0.6561,-0.6564 v -0.6564 l 0.6567,-0.6564 v -0.6564 l 0.6564,-0.6564 v -0.6565 l 1.3128,-1.3128 v -0.6564 l 0.6564,-0.6564 v -1.3128 l 0.6564,-0.6565 v -0.6564 l 0.6564,-0.6564 V 972.8 l 0.6564,-0.6564 v -0.6564 l 0.6564,-0.6564 v -0.6564 l 0.6564,-0.6564 v -0.6564 l 0.6564,-0.6564 v -1.3129 l 0.6564,-0.6564 v -0.6564 l 0.6564,-0.6564 v -1.3128 l 0.6564,-0.6564 v -0.6565 l 0.6564,-0.6564 v -0.6564 l 0.6564,-0.6564 v -1.3128 l 0.6564,-0.6564 v -1.3128 l 0.6564,-0.6564 v -0.6564 l 0.6564,-0.6565 v -1.3128 l 0.6564,-0.6564 v -1.3128 l 0.6564,-0.6564 v -1.3128 l 0.6564,-0.6565 v -1.3128 l 0.6564,-0.6564 v -0.6564 l 0.6564,-0.6564 v -1.3128 l 0.6564,-0.6564 v -1.3129 l 0.6564,-0.6564 v -1.3128 l 0.6564,-0.6564 v -1.3128 l 0.6567,-0.6564 v -1.3128 l 0.6564,-0.6564 v -1.3129 l 0.6564,-0.6564 v -1.3128 l 0.6564,-0.6564 v -1.3128 l 0.6564,-0.6564 v -1.9693 l 0.6564,-0.6564 v -1.3128 l -0.6564,-0.6564 v -1.3129 l -1.9692,-1.9692 h -0.6564 l -0.6567,-0.6564 h -10.5024 l -0.6564,0.6564 h -5.2512 l -0.6564,0.6564 h -3.282 l -0.6567,0.6564 h -3.9384 l -0.6564,0.6564 h -2.6256 l -0.6564,0.6565 h -2.6256 l -0.6564,0.6564 h -3.282 l -0.6564,0.6564 h -2.6259 l -0.6564,0.6564 h -2.6256 l -0.6564,0.6564 h -2.6256 l -0.6564,0.6564 h -2.6256 l -0.6564,0.6564 h -1.9692 l -0.6564,0.6564 h -1.9692 l -0.6564,0.6565 h -1.3128 l -0.6567,0.6564 h -1.9692 l -0.6561,0.6564 h -1.3131 l -0.6564,0.6564 h -1.3128 l -0.6564,0.6564 h -1.3128 l -0.6564,0.6564 h -1.3128 l -0.6564,0.6564 h -1.3128 l -0.6564,0.6564 h -0.6564 l -0.6564,0.6564 h -1.3128 l -0.6564,0.6565 h -0.6564 l -0.6564,0.6564 h -0.6564 l -0.6564,0.6564 h -0.6567 l -0.6561,0.6564 h -0.6564 l -0.6567,0.6564 h -0.6564 l -0.6564,0.6564 h -0.6564 l -1.3128,1.3128 h -0.6564 l -0.6564,0.6564 h -0.6564 l -1.3128,1.3128 h -0.6564 l -1.9692,1.9693 h -0.6564 l -4.5948,4.5948 h -0.6564 l -3.9387,3.9385 v 0.6564 l -5.2512,5.2513 v 0.6564 l -9.1896,9.1898 h -0.6564 l -1.9692,1.9692 h -0.6567 l -1.3128,1.3128 h -0.6564 l -0.6564,0.6564 h -0.6564 l -0.6564,0.6564 h -1.3128 l -0.6564,0.6564 h -1.9692 l -0.6564,0.6564 h -3.282 l -0.6564,-0.6564 h -1.3128 l -3.282,-3.282 v -1.3128 l -0.6564,-0.6564 v -5.9077 l 0.6564,-0.6565 v -1.9692 l 0.6564,-0.6564 v -1.3128 l 0.6564,-0.6564 v -1.3128 l 0.6564,-0.6564 v -0.6565 l 0.6564,-0.6564 v -0.6564 l 0.6564,-0.6564 v -0.6564 l 0.6564,-0.6564 v -0.6564 l 1.3128,-1.3128 v -0.6565 l 0.6564,-0.6564 v -0.6564 l 1.9692,-1.9692 v -0.6564 l 8.5335,-8.5333 h 0.6561 l 2.6259,-2.6257 h 0.6564 l 1.9692,-1.9692 h 0.6564 l 1.9692,-1.9692 h 0.6564 l 1.3128,-1.3129 h 0.6564 l 1.3128,-1.3128 h 0.6564 l 1.3128,-1.3128 h 0.6564 l 1.3128,-1.3128 h 0.6567 l 0.6561,-0.6565 h 0.6564 l 1.3131,-1.3128 h 0.6564 l 1.3128,-1.3128 h 0.6564 l 0.6564,-0.6564 h 0.6564 l 0.6564,-0.6564 h 0.6564 l 1.3128,-1.3128 h 0.6564 l 0.6564,-0.6564 h 0.6564 l 0.6564,-0.6564 h 0.6564 l 1.3128,-1.3129 h 0.6564 l 0.6564,-0.6564 h 0.6564 l 0.6564,-0.6564 h 0.6564 l 0.6564,-0.6564 h 0.6564 l 1.3128,-1.3128 h 0.6564 l 0.6567,-0.6564 h 0.6564 l 0.6561,-0.6564 h 0.6567 l 0.6564,-0.6564 h 0.6564 l 0.6564,-0.6565 h 0.6564 l 0.6564,-0.6564 h 0.6564 l 0.6564,-0.6564 h 0.6564 l 0.6564,-0.6564 h 0.6564 l 1.3128,-1.3128 h 0.6564 l 0.6564,-0.6564 h 0.6564 l 0.6564,-0.6564 h 0.6564 l 0.6564,-0.6565 h 0.6564 l 0.6564,-0.6564 h 0.6564 l 0.6564,-0.6564 h 0.6564 l 0.6567,-0.6564 h 0.6561 l 0.6564,-0.6564 h 0.6567 l 0.6561,-0.6564 h 0.6567 l 1.3128,-1.3128 h 0.6564 l 0.6564,-0.6564 h 0.6564 l 0.6564,-0.6564 h 0.6564 l 0.6564,-0.6564 h 0.6564 l 1.3128,-1.3129 h 0.6564 l 0.6564,-0.6564 h 0.6564 l 1.3128,-1.3128 h 0.6564 l 0.6564,-0.6564 h 0.6564 l 1.3128,-1.3128 h 0.6564 l 1.3128,-1.3128 h 0.6564 l 0.6564,-0.6565 h 0.6567 l 1.3125,-1.3128 h 0.6567 l 1.3128,-1.3128 h 0.6564 l 1.3128,-1.3128 h 0.6564 l 1.9692,-1.9693 h 0.6564 l 1.3128,-1.3128 h 0.6564 l 1.9692,-1.9692 h 0.6564 l 1.9692,-1.9692 h 0.6564 l 1.9695,-1.9693 h 0.6561 l 3.2823,-3.282 h 0.6564 l 5.9076,-5.9077 h 0.6564 l 4.5948,-4.59489 v -0.6564 l 5.2515,-5.25129 v -0.6564 l 3.282,-3.28206 v -0.6564 l 2.6256,-2.62566 v -0.6564 l 1.3128,-1.31283 v -0.6564 l 1.9692,-1.96923 v -0.6564 l 1.3128,-1.31283 v -0.6564 l 0.6564,-0.65643 v -0.6564 l 1.3128,-1.31283 v -0.6564 l 1.3128,-1.31283 v -0.6564 l 0.6564,-0.65643 v -0.6564 l 1.3128,-1.31283 v -0.6564 l 0.6564,-0.6564 v -0.6564 l 0.6564,-0.65643 v -0.6564 l 0.6564,-0.65643 v -0.6564 l 1.3131,-1.31283 v -0.6564 l 0.6564,-0.6564 v -0.65643 l 0.6564,-0.6564 v -1.31283 l 0.6564,-0.6564 v -0.6564 l 0.6564,-0.65643 v -0.6564 l 0.6564,-0.6564 v -0.65643 l 0.6564,-0.6564 v -0.6564 l 0.6564,-0.65643 v -1.3128 l 0.6564,-0.65643 v -0.6564 l 0.6564,-0.65643 v -1.3128 l 0.6564,-0.65643 v -1.3128 l 0.6564,-0.6564 v -1.31283 l 0.6564,-0.65643 v -1.3128 l 0.6564,-0.65643 v -1.96923 l 0.6564,-0.6564 v -1.96923 l 0.6564,-0.6564 v -1.96923 l 0.6564,-0.65643 v -2.62563 l 0.6564,-0.6564 v -2.62566 l 0.6564,-0.6564 v -3.93846 l 0.6564,-0.6564 v -3.28206 l 0.6564,-0.65643 v -3.93846 l 0.6564,-0.6564 v -5.25129 l 0.6564,-0.6564 v -7.22052 l 0.6564,-0.6564 v -21.66156 l -0.6564,-0.6564 v -6.56409 l -0.6564,-0.65643 v -4.59486 l -0.6564,-0.6564 v -3.28206 l -0.6564,-0.6564 v -3.28206 l -0.6564,-0.65643 v -2.62563 l -0.6564,-0.6564 v -2.62563 l -0.6564,-0.65643 V 716.8 l -0.6564,-0.6564 v -1.96923 l -0.6564,-0.65643 v -1.3128 l -0.6564,-0.65643 v -1.96923 l -0.6564,-0.6564 v -1.31283 l -0.6564,-0.6564 v -1.31283 l -0.6564,-0.6564 v -1.31283 l -0.6564,-0.6564 v -1.31283 l -0.6564,-0.6564 v -1.31283 l -0.6564,-0.6564 v -1.31283 l -0.6564,-0.6564 v -1.31283 l -0.6564,-0.6564 v -0.6564 l -0.6564,-0.65643 v -1.31283 l -0.6564,-0.6564 v -1.31283 l -0.6564,-0.6564 v -0.6564 l -0.6564,-0.65643 v -0.6564 l -0.6564,-0.6564 v -1.31283 l -0.6564,-0.6564 v -0.65643 l -0.6567,-0.6564 v -0.6564 l -0.6564,-0.65643 v -0.6564 l -0.6564,-0.65643 v -0.6564 l -0.6564,-0.6564 v -0.65643 l -0.6564,-0.6564 v -0.6564 l -0.6564,-0.6564 v -0.65643 l -0.6564,-0.6564 v -0.6564 l -0.6564,-0.65643 v -0.6564 l -0.6564,-0.65643 v -0.6564 l -1.3128,-1.31283 v -0.6564 l -0.6564,-0.6564 v -0.65643 l -1.3128,-1.3128 v -0.65643 l -1.3128,-1.3128 v -0.65643 l -1.3128,-1.3128 v -0.65643 l -1.3128,-1.3128 v -0.65643 l -1.9692,-1.96923 v -0.6564 l -1.9692,-1.96923 v -0.6564 l -5.2515,-5.25129 v -0.65643 l -1.3128,-1.3128 h -0.6564 l -5.2512,-5.25129 h -0.6564 l -1.9692,-1.96923 h -0.6564 l -1.3128,-1.31283 h -0.6564 L 2011.3443,640 h -2.6256 v 4.59486 l 0.6564,0.65643 v 0.6564 l 0.6561,0.6564 v 0.65643 l 1.3131,1.3128 v 0.65643 l 1.3128,1.3128 v 0.65643 l 0.6564,0.6564 v 0.65643 l 1.3128,1.3128 v 0.65643 l 0.6564,0.6564 v 0.6564 l 1.3128,1.31283 v 0.6564 l 0.6564,0.65643 v 0.6564 l 0.6564,0.6564 v 0.65643 l 1.3128,1.3128 v 0.65643 l 0.6564,0.6564 v 0.6564 l 0.6564,0.65643 v 0.6564 l 0.6564,0.6564 v 0.65643 l 0.6564,0.6564 v 0.6564 l 0.6564,0.65643 v 0.6564 l 0.6564,0.6564 v 0.65643 l 0.6564,0.6564 v 1.31283 l 0.6564,0.6564 v 0.6564 l 0.6564,0.65643 v 0.6564 l 0.6564,0.65643 v 0.6564 l 0.6564,0.6564 v 1.31283 l 0.6564,0.6564 v 0.6564 l 0.6564,0.65643 v 1.3128 l 0.6567,0.65643 v 1.31283 l 0.6564,0.6564 v 1.31283 l 0.6564,0.6564 v 1.31283 l 0.6564,0.6564 v 0.6564 l 0.6564,0.65643 v 1.96923 l 0.6564,0.6564 v 1.31283 l 0.6564,0.6564 v 1.31283 l 0.6564,0.6564 v 1.96923 l 0.6564,0.6564 v 1.31283 l 0.6564,0.6564 v 1.96926 l 0.6564,0.6564 v 2.62563 l 0.6564,0.65643 v 1.96923 l 0.6564,0.6564 v 3.28206 l 0.6564,0.6564 v 2.62566 l 0.6564,0.6564 v 3.28206 l 0.6564,0.6564 v 3.28203 l 0.6564,0.65643 v 3.93846 l 0.6564,0.6564 v 4.59489 l 0.6564,0.6564 v 5.25129 l 0.6564,0.6564 v 11.81538 l -1.9692,1.96923 h -1.3128 l -5.9076,-5.90769 v -0.6564 l -2.6256,-2.62563 v -0.65643 l -1.9695,-1.96923 v -0.6564 l -2.6256,-2.62566 v -0.6564 l -1.9692,-1.96923 v -0.6564 l -1.9692,-1.96923 v -0.65643 l -1.9692,-1.96923 v -0.6564 l -2.6256,-2.62563 v -0.65643 l -2.6256,-2.62563 v -0.65643 l -2.6256,-2.62563 v -0.6564 l -2.6259,-2.62566 V 716.8 l -3.9384,-3.93846 v -0.6564 l -4.5948,-4.59489 v -0.6564 l -10.5027,-10.50258 v -0.6564 l -0.6564,-0.6564 h -0.6564 l -8.5332,-8.53335 h -0.6564 l -3.9384,-3.93846 h -0.6564 l -2.6259,-2.62563 h -0.6561 l -2.6259,-2.62563 h -3.282 l -0.6564,0.6564 v 0.6564 l -0.6564,0.6564 v 1.96923 l 0.6564,0.65643 v 1.31283 l 0.6564,0.6564 v 0.6564 l 0.6564,0.65643 v 0.6564 l 0.6564,0.6564 v 0.65643 l 0.6564,0.6564 v 0.6564 l 0.6564,0.65643 v 0.6564 l 0.6564,0.6564 v 0.65643 l 1.3128,1.3128 v 0.65643 l 0.6564,0.6564 v 0.65643 l 1.3128,1.3128 v 0.6564 l 1.3131,1.31283 v 0.6564 l 1.9692,1.96923 v 0.65643 l 1.3128,1.31283 v 0.6564 l 1.3128,1.31283 v 0.6564 l 1.3128,1.31283 v 0.6564 l 1.9692,1.96923 v 0.6564 l 1.3128,1.31283 v 0.6564 l 1.3128,1.31283 v 0.6564 l 1.3128,1.31283 v 0.65643 l 1.9692,1.9692 v 0.65643 l 1.3128,1.31283 v 0.6564 l 1.9695,1.96923 v 0.6564 l 1.3125,1.31283 v 0.6564 l 1.3131,1.31283 v 0.6564 l 1.9692,1.96923 v 0.65643 l 1.3128,1.3128 v 0.65643 l 1.3128,1.3128 v 0.65643 l 1.3128,1.3128 v 0.65643 l 1.9692,1.96923 v 0.6564 l 1.3128,1.31283 v 0.6564 l 1.3128,1.31283 v 0.6564 l 0.6564,0.6564 v 0.65643 l 1.3128,1.31283 v 0.6564 l 1.3128,1.3128 v 0.65643 l 1.3131,1.31283 v 0.6564 l 0.6561,0.6564 v 0.6564 l 1.3131,1.31283 v 0.65643 l 0.6561,0.6564 v 0.6564 l 1.3131,1.31283 v 0.6564 l 0.6564,0.65643 v 0.6564 l 0.6564,0.6564 v 0.65643 l 1.3128,1.3128 v 0.65643 l 0.6564,0.6564 v 0.6564 l 0.6564,0.65643 v 0.6564 l 0.6564,0.6564 v 0.65643 l 0.6564,0.6564 v 0.6564 l 0.6564,0.65643 v 1.3128 l 0.6564,0.65643 v 0.6564 l 0.6564,0.65643 v 0.6564 l 0.6564,0.6564 v 1.31283 l 0.6564,0.6564 v 0.65643 l 0.6564,0.6564 v 1.3128 l 0.6564,0.65643 v 1.31283 l 0.6564,0.6564 v 1.31283 l 0.6564,0.6564 v 1.31283 l 0.6564,0.6564 v 1.31283 l 0.6564,0.6564 v 2.62563 l 0.6564,0.65643 v 3.28206 l 0.6564,0.6564 v 16.41024 l -0.6564,0.65643 v 2.62563 l -0.6564,0.6564 v 1.96926 l -0.6564,0.6564 v 1.3128 l -0.6564,0.65643 v 0.6564 l -0.6564,0.6564 v 1.31283 l -0.6564,0.65643 v 0.6564 l -0.6564,0.6564 v 0.65643 l -0.6564,0.6564 v 0.6564 l -0.6564,0.65643 v 0.6564 l -0.6564,0.6564 v 0.65643 l -1.3128,1.3128 v 0.65643 l -0.6564,0.6564 v 0.6564 l -1.3128,1.31283 v 0.6564 l -1.9692,1.96923 v 0.65643 l -2.6256,2.62563 v 0.6564 l -12.4719,12.47181 h -0.6564 l -2.6256,2.62563 h -0.6564 l -1.3128,1.31283 h -1.3128 l -1.3128,-1.31283 v -15.09744 l -0.6564,-0.6564 v -7.22052 l -0.6567,-0.6564 v -3.93846 l -0.6564,-0.6564 v -3.28206 l -0.6564,-0.6564 v -2.62566 l -0.6564,-0.6564 v -1.96923 l -0.6564,-0.6564 v -1.96926 l -0.6564,-0.6564 v -1.96923 l -0.6564,-0.6564 v -1.31283 l -0.6564,-0.6564 v -1.31283 l -0.6564,-0.6564 v -1.31283 l -0.6564,-0.6564 v -1.31283 l -0.6564,-0.6564 v -1.31283 l -0.6564,-0.6564 v -0.65643 l -0.6564,-0.6564 v -1.31283 l -0.6564,-0.6564 v -0.6564 L 1979.8365,793.6 v -0.6564 l -0.6564,-0.6564 v -1.31283 l -0.6564,-0.6564 v -0.65643 l -0.6564,-0.6564 v -0.65643 l -0.6564,-0.6564 v -0.6564 l -0.6564,-0.65643 v -0.6564 l -0.6564,-0.6564 v -0.65643 l -0.6564,-0.6564 v -0.6564 l -1.3128,-1.31283 v -0.6564 l -0.6564,-0.65643 v -0.6564 l -1.3128,-1.31283 v -0.6564 l -1.3128,-1.31283 v -0.6564 l -2.6259,-2.62563 v -0.65643 l -5.9076,-5.90769 h -0.6564 l -1.9692,-1.96923 h -0.6564 l -0.6564,-0.6564 h -0.6564 l -0.6564,-0.65643 h -1.3128 l -0.6564,0.65643 h -1.3128 l -1.3131,1.3128 v 2.62566 l 0.6567,0.6564 v 1.31283 l 0.6564,0.6564 v 0.65643 l 0.6564,0.6564 v 0.6564 l 0.6564,0.65643 v 0.6564 l 0.6564,0.6564 v 0.6564 l 0.6564,0.65643 v 0.6564 l 1.3128,1.31283 v 0.6564 l 0.6564,0.65643 v 0.6564 l 0.6564,0.6564 v 0.65643 l 0.6564,0.6564 v 0.6564 l 0.6564,0.65643 v 0.6564 l 0.6564,0.6564 v 1.31283 l 0.6564,0.6564 v 0.65643 l 0.6564,0.6564 v 0.6564 l 0.6564,0.65643 v 1.31283 l 0.6564,0.6564 v 1.31283 l 0.6564,0.6564 v 1.31283 l 0.6564,0.6564 v 1.31283 l 0.6564,0.6564 v 1.31283 l 0.6564,0.6564 v 1.96923 l 0.6564,0.6564 v 1.31283 l 0.6564,0.6564 v 2.62566 l 0.6564,0.6564 v 2.62563 l 0.6567,0.65643 v 3.28206 l 0.6561,0.6564 v 5.25129 l 0.6564,0.6564 v 21.00513 l -0.6564,0.6564 v 3.93846 l -0.6561,0.65643 v 2.62563 l -0.6567,0.6564 v 1.96923 l -0.6564,0.65643 v 1.3128 l -0.6564,0.65643 v 1.96923 l -0.6564,0.6564 v 0.6564 l -0.6564,0.65643 v 1.31283 l -0.6564,0.6564 v 0.6564 l -0.6564,0.6564 v 0.65643 l -0.6564,0.6564 v 0.6564 l -0.6564,0.65643 v 0.6564 l -0.6564,0.65643 v 0.6564 l -1.3128,1.31286 v 0.6564 l -1.9692,1.9692 V 870.4 l -1.9692,1.9692 h -0.6564 l -2.6256,2.6257 h -0.6564 l -1.3128,1.3128 h -0.6564 l -1.9695,1.9692 h -0.6564 l -0.6564,0.6565 h -0.6564 l -1.3128,1.3128 h -0.6564 l -1.3128,1.3128 h -0.6564 l -1.3128,1.3128 h -0.6564 l -0.6564,0.6564 h -0.6564 l -1.3128,1.3128 h -0.6564 l -1.3128,1.3129 h -0.6564 l -0.6564,0.6564 h -0.6564 l -1.3128,1.3128 h -0.6564 l -0.6564,0.6564 h -0.6567 l -1.3125,1.3128 h -0.6567 l -0.6564,0.6564 h -0.6564 l -1.3128,1.3129 h -0.6564 l -0.6564,0.6564 h -0.6564 l -1.3128,1.3128 h -0.6564 l -0.6564,0.6564 h -0.6564 l -0.6564,0.6564 h -0.6564 L 1919.4468,896 h -0.6564 l -1.3128,1.3128 h -0.6564 l -0.6564,0.6565 h -0.6564 l -0.6564,0.6564 h -3.2823 l -0.6564,-0.6564 v -0.6565 l -0.6564,-0.6564 0.6564,-0.6564 v -5.2513 l 0.6564,-0.6564 v -5.9077 l 0.6564,-0.6564 v -19.69229 l -0.6564,-0.65643 v -5.90769 l -0.6564,-0.6564 v -4.59486 l -0.6564,-0.65643 v -2.62563 l -0.6564,-0.6564 v -2.62566 l -0.6564,-0.6564 v -1.96923 l -0.6564,-0.65643 v -2.62563 l -0.6564,-0.6564 v -1.31283 l -0.6564,-0.6564 v -1.96923 l -0.6564,-0.6564 v -1.31283 l -0.6564,-0.65643 v -1.3128 l -0.6564,-0.65643 v -1.96923 l -0.6564,-0.6564 v -0.6564 l -0.6564,-0.65643 v -1.3128 l -0.6564,-0.65643 v -1.3128 l -0.6564,-0.65643 v -0.6564 l -0.6564,-0.6564 v -0.65643 l -0.6564,-0.6564 v -1.31283 l -0.6564,-0.6564 v -0.65643 l -0.6564,-0.6564 v -0.6564 l -0.6564,-0.65643 v -0.6564 l -0.6564,-0.6564 v -0.6564 l -1.3128,-1.31283 v -0.65643 l -0.6564,-0.6564 v -0.6564 l -1.9692,-1.96923 h -2.6259 l -1.9692,1.96923 v 1.3128 l -0.6564,0.65643 v 5.25126 l 0.6564,0.65643 v 3.28206 l 0.6564,0.6564 v 2.62563 l 0.6564,0.65643 v 3.28203 l 0.6564,0.65643 v 5.90769 l 0.6564,0.6564 v 11.81538 l 0.6567,0.65643 v 7.87692 l -0.6567,0.6564 v 9.18975 l -0.6564,0.65636 v 4.5949 l -0.6564,0.6564 v 3.9385 l -0.6564,0.6564 v 3.2821 l -0.6564,0.6564 v 2.6256 l -0.6564,0.6564 v 1.9692 l -0.6564,0.6565 v 1.9692 l -0.6564,0.6564 v 1.9692 l -0.6564,0.6564 v 1.9693 l -0.6564,0.6564 v 1.3128 L 1885.9698,896 v 1.3128 l -0.6564,0.6565 v 1.3128 l -0.6564,0.6564 v 0.6564 l -0.6564,0.6564 v 1.3128 l -0.6564,0.6564 v 0.6564 l -0.6564,0.6564 v 1.3129 l -0.6564,0.6564 v 0.6564 l -0.6564,0.6564 v 0.6564 l -0.6564,0.6564 v 0.6564 l -0.6564,0.6564 v 0.6565 l -0.6564,0.6564 v 0.6564 l -0.6564,0.6564 v 0.6564 l -0.6564,0.6564 v 0.6564 l -0.6564,0.6564 v 0.6564 l -0.6564,0.6565 v 0.6564 l -1.3128,1.3128 v 0.6564 l -1.3131,1.3128 V 921.6 l -1.9692,1.9692 v 0.6564 l -1.9692,1.9693 v 0.6564 l -2.6256,2.6256 v 0.6565 l -3.282,3.282 v 0.6564 l -9.1896,9.1897 h -0.6567 l -0.6564,0.6565 h -0.6564 l -0.6564,0.6564 h -8.5332 l -0.6564,0.6564 h -3.282 l -0.6564,0.6564 h -3.282 l -0.6567,0.6564 h -2.6256 l -0.6564,0.6564 h -3.282 l -0.6564,0.6564 h -5.9076 l -0.6564,0.6564 h -4.5948 l -0.6567,-0.6564 h -5.9076 l -0.6564,-0.6564 h -2.6256 l -0.6564,-0.6564 h -2.6256 l -0.6564,-0.6564 h -1.9692 l -0.6564,-0.6564 h -2.6256 l -0.6564,-0.6564 h -3.9387 l -0.6564,-0.6564 h -6.564 l -0.6564,-0.6565 h -0.6564 l -0.6564,-0.6564 h -0.6564 l -6.5643,-6.564 v -0.6565 l -3.9384,-3.9384 v -0.6564 l -1.9692,-1.9693 v -0.6564 l -1.9692,-1.9692 v -0.6564 l -1.9692,-1.9693 v -0.6564 l -1.3128,-1.3128 v -0.6564 l -1.3128,-1.3128 v -0.6564 l -0.6564,-0.6564 v -0.6564 l -1.3128,-1.3129 v -0.6564 l -0.6564,-0.6564 v -0.6564 l -0.6564,-0.6564 v -0.6564 l -0.6567,-0.6564 v -0.6564 l -0.6564,-0.6564 v -0.6565 l -0.6561,-0.6564 v -0.6564 l -0.6564,-0.6564 v -0.6564 l -0.6567,-0.6564 v -0.6564 l -0.6564,-0.6564 v -0.6565 l -0.6564,-0.6564 v -1.3128 l -0.6564,-0.6564 v -0.6564 l -0.6564,-0.6564 v -1.3128 l -0.6564,-0.6564 v -1.3128 l -0.6564,-0.6565 V 896 l -0.6564,-0.6564 v -1.3128 l -0.6564,-0.6564 v -1.3128 l -0.6564,-0.6565 v -1.9692 l -0.6564,-0.6564 v -1.9692 l -0.6564,-0.6564 v -1.9693 l -0.6564,-0.6564 v -2.6256 l -0.6564,-0.6564 v -2.6257 l -0.6564,-0.6564 v -3.282 l -0.6564,-0.6564 v -5.2513 l -0.6564,-0.6564 v -8.53338 l -0.6564,-0.6564 v -12.47181 l 0.6564,-0.6564 v -9.84615 l 0.6564,-0.6564 v -5.90772 l 0.6564,-0.6564 v -3.93846 l 0.6564,-0.6564 v -3.28206 l 0.6564,-0.6564 v -3.93849 l 0.6564,-0.6564 v -3.28206 l -0.6564,-0.6564 v -1.31283 l -1.3128,-1.3128 h -2.6256 l -0.6564,0.6564 h -0.6564 l -0.6564,0.6564 v 0.65643 l -1.9692,1.96923 v 0.6564 l -0.6564,0.65643 v 0.6564 l -0.6564,0.6564 v 0.6564 l -0.6564,0.65643 v 0.6564 l -0.6567,0.6564 v 0.65643 l -0.6564,0.6564 v 0.65643 l -0.6564,0.6564 v 1.31283 l -0.6564,0.6564 v 0.6564 l -0.6564,0.65643 v 1.3128 l -0.6564,0.65643 v 0.6564 l -0.6564,0.6564 v 1.31283 l -0.6564,0.6564 v 1.31283 l -0.6564,0.6564 v 1.31283 l -0.6564,0.6564 v 1.96926 l -0.6564,0.6564 v 1.3128 l -0.6564,0.65643 v 1.96923 l -0.6564,0.6564 v 1.96923 l -0.6564,0.6564 v 1.96926 l -0.6564,0.6564 v 2.62563 l -0.6564,0.65643 v 3.28203 l -0.6564,0.65643 v 3.93846 l -0.6564,0.6564 v 5.90769 l -0.6564,0.6564 V 881.559 l 0.6564,0.6564 v 5.9077 l 0.6564,0.6564 v 5.2513 l 0.6564,0.6564 v 2.6256 l -1.3128,1.3129 h -2.6256 l -0.6564,-0.6564 h -0.6564 l -0.6564,-0.6565 h -0.6564 l -0.6564,-0.6564 h -0.6564 L 1721.2107,896 h -0.6564 l -0.6564,-0.6564 h -0.6564 l -0.6564,-0.6564 h -0.6564 l -1.3128,-1.3128 h -0.6564 l -0.6564,-0.6564 h -0.6564 l -0.6564,-0.6564 h -0.6564 l -1.3128,-1.3129 h -0.6564 l -0.6564,-0.6564 h -0.6564 l -1.3128,-1.3128 h -0.6564 l -0.6564,-0.6564 h -0.6564 l -0.6564,-0.6564 h -0.6564 l -1.3128,-1.3128 h -0.6564 l -0.6567,-0.6565 h -0.6561 l -1.3131,-1.3128 h -0.6564 l -0.6564,-0.6564 h -0.6564 l -1.3128,-1.3128 h -0.6564 l -1.3128,-1.3128 h -0.6564 l -0.6564,-0.6564 h -0.6564 l -1.3128,-1.3128 h -0.6564 l -1.3128,-1.3129 h -0.6564 l -1.3128,-1.3128 h -0.6564 l -2.6256,-2.6256 h -0.6564 l -3.9387,-3.9385 v -0.6564 l -1.9692,-1.9692 v -0.6565 l -0.6564,-0.65636 v -0.6564 l -1.3128,-1.31283 v -0.65643 l -0.6564,-0.6564 v -0.6564 l -0.6564,-0.65643 v -0.6564 l -0.6564,-0.6564 v -1.31283 l -0.6564,-0.6564 v -1.31283 l -0.6564,-0.6564 v -1.31283 l -0.6564,-0.6564 v -1.31283 l -0.6564,-0.6564 v -1.96923 l -0.6564,-0.65643 v -2.62563 l -0.6564,-0.6564 v -3.93849 l -0.6564,-0.6564 v -21.00513 l 0.6564,-0.6564 v -5.25129 l 0.6564,-0.6564 v -3.93846 l 0.6564,-0.65643 v -2.62563 l 0.6564,-0.6564 v -2.62566 l 0.6564,-0.6564 v -1.96923 l 0.6564,-0.6564 v -1.31283 l 0.6564,-0.6564 v -1.96923 l 0.6564,-0.65643 v -1.3128 l 0.6564,-0.65643 v -1.3128 l 0.6564,-0.65643 v -0.6564 l 0.6564,-0.6564 v -1.31283 l 0.6564,-0.65643 v -0.6564 l 0.6564,-0.6564 v -1.31283 l 0.6564,-0.6564 v -0.65643 l 0.6564,-0.6564 v -0.6564 l 0.6564,-0.65643 v -0.6564 l 0.6564,-0.6564 v -1.31283 l 1.3128,-1.31283 v -0.6564 l 0.6567,-0.6564 v -0.65643 l 0.6561,-0.6564 v -0.65643 l 0.6567,-0.6564 v -0.6564 l 1.3128,-1.31283 v -0.6564 l 0.6564,-0.6564 v -0.65643 l 0.6564,-0.6564 v -1.31283 l 0.6564,-0.6564 v -1.96923 l -0.6564,-0.65643 v -0.6564 h -0.6564 l -0.6564,-0.6564 h -3.9387 l -0.6564,0.6564 h -0.6564 l -1.3128,1.31283 h -0.6564 l -6.564,6.56409 v 0.65643 l -1.9692,1.9692 v 0.65643 l -1.3128,1.31283 v 0.6564 l -1.3128,1.31283 v 0.6564 l -1.3128,1.31283 v 0.6564 l -0.6564,0.6564 v 0.65643 l -0.6564,0.6564 v 0.6564 l -1.3128,1.31283 v 0.6564 l -0.6567,0.65643 v 0.6564 l -0.6564,0.6564 v 0.65643 l -0.6564,0.6564 v 0.65643 l -0.6564,0.6564 v 1.31283 l -0.6564,0.6564 V 793.6 l -0.6564,0.65643 v 0.6564 l -0.6564,0.6564 v 1.31283 l -0.6564,0.6564 v 0.65643 l -0.6564,0.6564 v 1.31283 l -0.6564,0.6564 v 1.31283 l -0.6564,0.6564 v 1.31283 l -0.6564,0.6564 v 1.31283 l -0.6564,0.6564 v 1.96923 l -0.6564,0.6564 v 1.31283 l -0.6564,0.6564 v 1.96926 l -0.6564,0.6564 v 1.96923 l -0.6564,0.6564 v 2.62566 l -0.6564,0.6564 v 2.62563 l -0.6564,0.65643 v 3.93846 l -0.6564,0.6564 v 5.25129 l -0.6564,0.6564 v 17.72307 l -1.3128,1.31283 h -1.3128 l -1.3128,-1.31283 h -0.6567 l -3.282,-3.28203 h -0.6564 l -11.8152,-11.81541 v -0.6564 l -2.6256,-2.62563 v -0.65643 l -1.3131,-1.3128 v -0.65643 l -1.3128,-1.3128 v -0.65643 l -1.3128,-1.3128 v -0.65643 l -0.6564,-0.6564 v -0.6564 l -1.3128,-1.31283 v -0.6564 l -0.6564,-0.65643 v -0.6564 l -0.6564,-0.6564 v -0.65643 l -0.6564,-0.6564 v -0.6564 l -0.6564,-0.65643 v -0.6564 l -0.6564,-0.65643 v -1.3128 l -0.6564,-0.65643 v -0.6564 l -0.6564,-0.6564 v -1.31283 l -0.6564,-0.6564 v -1.96923 l -0.6564,-0.65643 v -4.59486 l -0.6564,-0.6564 v -3.28206 l 0.6564,-0.6564 V 793.6 l 0.6564,-0.6564 v -3.93846 l 0.6564,-0.65643 v -1.96923 l 0.6564,-0.6564 v -2.62563 l 0.6564,-0.65643 v -1.3128 l 0.6564,-0.65643 v -1.3128 l 0.6564,-0.65643 v -1.3128 l 0.6564,-0.65643 v -1.31283 l 0.6564,-0.6564 v -1.3128 l 0.6564,-0.65643 v -1.3128 l 0.6564,-0.65643 v -0.6564 l 0.6564,-0.6564 v -0.65643 l 0.6564,-0.6564 v -1.31283 l 0.6564,-0.6564 v -0.65643 l 0.6564,-0.6564 v -0.6564 l 0.6567,-0.65643 v -0.6564 l 0.6561,-0.6564 v -0.65643 l 0.6567,-0.6564 v -0.6564 l 0.6564,-0.65643 v -0.6564 l 1.3128,-1.31283 v -0.6564 l 0.6564,-0.6564 v -0.65643 l 0.6564,-0.6564 v -0.6564 l 0.6564,-0.65643 v -0.6564 l 1.3128,-1.31283 v -0.6564 l 0.6564,-0.65643 v -0.6564 l 1.3128,-1.3128 v -0.65643 l 1.3128,-1.31283 v -0.6564 l 1.3128,-1.3128 v -0.65643 l 0.6564,-0.6564 v -0.65643 l 1.3128,-1.3128 v -0.65643 l 1.3128,-1.3128 v -0.65643 l 1.9692,-1.9692 v -0.65643 l 1.3128,-1.31283 v -0.6564 l 1.3131,-1.31283 v -0.6564 l 1.3125,-1.31283 v -0.6564 l 1.3131,-1.31283 v -0.6564 l 1.3128,-1.31283 v -0.6564 l 1.9692,-1.96923 v -0.65643 l 1.3128,-1.3128 v -0.65643 l 1.3128,-1.3128 v -0.6564 l 1.3128,-1.31283 v -0.65643 l 1.9692,-1.9692 v -0.65643 l 1.3128,-1.31283 v -0.6564 l 1.3128,-1.31283 v -0.6564 l 1.3128,-1.31283 v -0.6564 l 1.3128,-1.31283 v -0.6564 l 1.9692,-1.96923 v -0.6564 l 1.3128,-1.31283 v -0.6564 l 1.3131,-1.31283 v -0.65643 l 1.3128,-1.3128 v -0.65643 l 1.3128,-1.3128 v -0.65643 l 0.6564,-0.6564 v -0.6564 l 1.3128,-1.31283 v -0.6564 l 1.3128,-1.31283 v -0.6564 l 0.6564,-0.65643 v -0.6564 l 0.6564,-0.6564 v -0.65643 l 1.3128,-1.3128 v -0.65643 l 0.6564,-0.6564 v -0.6564 l 0.6564,-0.65643 v -0.6564 l 0.6564,-0.6564 v -0.65643 l 0.6564,-0.6564 v -3.28206 l -1.3128,-1.3128 h -2.6256 l -1.3128,1.3128 h -0.6564 l -2.6256,2.62563 h -0.6564 l -3.9384,3.93849 h -0.6567 l -5.2512,5.25126 h -0.6564 l -9.846,9.84615 v 0.65643 l -6.5643,6.56409 v 0.65643 l -3.9384,3.93846 v 0.6564 l -3.9384,3.93846 v 0.6564 l -2.6256,2.62566 v 0.6564 l -2.6256,2.62563 v 0.65643 l -3.2823,3.28206 v 0.6564 l -1.9692,1.96923 v 0.6564 l -2.6256,2.62566 v 0.6564 l -1.9692,1.96923 v 0.65643 l -1.9692,1.9692 v 0.65643 l -2.6256,2.62563 v 0.6564 l -1.9692,1.96926 v 0.6564 l -2.6256,2.62563 v 0.65643 l -1.9695,1.9692 v 0.65643 l -2.6256,2.62563 h -1.9692 l -0.6564,-0.6564 v -0.6564 l -0.6564,-0.65643 v -1.96923 l -0.6564,-0.6564 v -16.41027 l 0.6564,-0.6564 v -3.93846 l 0.6564,-0.6564 v -3.28206 l 0.6564,-0.65643 v -1.96923 l 0.6564,-0.6564 v -2.62563 l 0.6564,-0.65643 v -1.9692 l 0.6564,-0.65643 v -1.96923 l 0.6564,-0.6564 v -1.96923 l 0.6567,-0.65643 v -1.96923 l 0.6564,-0.6564 v -1.96923 l 0.6561,-0.6564 v -1.31283 l 0.6564,-0.6564 v -1.96926 l 0.6567,-0.6564 v -1.31283 l 0.6564,-0.6564 v -1.96923 l 0.6564,-0.6564 v -1.31283 l 0.6564,-0.6564 v -1.31283 l 0.6564,-0.6564 v -1.31283 l 0.6564,-0.6564 v -1.31283 l 0.6564,-0.6564 v -0.65643 l 0.6564,-0.6564 v -1.31283 l 0.6564,-0.6564 v -1.31283 l 0.6564,-0.6564 v -0.65643 l 0.6564,-0.6564 v -1.31283 l 0.6564,-0.6564 v -0.6564 l 0.6564,-0.6564 v -0.65643 l 0.6564,-0.6564 v -1.31283 l 0.6564,-0.6564 v -0.65643 l 0.6564,-0.6564 v -0.6564 l 0.6564,-0.65643 v -0.6564 l 0.6564,-0.6564 v -0.65643 l 0.6564,-0.6564 v -0.6564 l 0.6564,-0.65643 v -0.6564 l 0.6564,-0.6564 v -0.65643 l 0.6564,-0.6564 v -0.6564 l 1.3128,-1.31283 v -0.6564 l 0.6564,-0.65643 v -0.6564 l 0.6564,-0.6564 v -0.65643 l 0.6567,-0.6564 v -0.6564 l 0.6561,-0.65643 v -0.6564 l 1.3131,-1.31283 v -0.6564 l 0.6564,-0.6564 v -0.65643 l 0.6564,-0.6564 v -0.6564 l 0.6564,-0.65643 v -0.6564 l 0.6564,-0.65643 v -0.6564 l 0.6564,-0.6564 v -0.65643 l 0.6564,-0.6564 v -0.6564 l 0.6564,-0.65643 v -0.6564 l 0.6564,-0.6564 v -0.65643 l 0.6564,-0.6564 V 640.6564 L 1631.9391,640 Z" />
  <ellipse
  	fill="none" stroke="#ffffff" stroke-width="25"
	cx="1820.0001"
	cy="1024"
	rx="499.56308"
	ry="499.56296" />
</svg>
